<?xml version="1.0" encoding="UTF-8"?>
<svg width="16px" height="16px" viewBox="0 0 16 16" version="1.1" xmlns="http://www.w3.org/2000/svg" xmlns:xlink="http://www.w3.org/1999/xlink">
    <title>ic-loading</title>
    <g stroke="none" stroke-width="1" fill="none" fill-rule="evenodd">
        <g id="3" transform="translate(-770.000000, -208.000000)">
            <g id="ic-loading" transform="translate(770.000000, 208.000000)">
                <path d="M15.3733797,8.20512821 C15.733291,8.20512821 16.0278736,8.49739737 15.9978973,8.85603802 C15.9307438,9.65995742 15.7394818,10.4499639 15.4297808,11.1976777 C15.0367977,12.1464284 14.4607961,13.0085083 13.7346522,13.7346522 C13.0085083,14.4607961 12.1464284,15.0367977 11.1976777,15.4297808 C10.4499639,15.7394818 9.65995742,15.9307438 8.85603802,15.9978973 C8.49739737,16.0278736 8.20512821,15.733291 8.20512821,15.3733797 L8.20512821,15.112716 C8.20512821,14.7528046 8.49765803,14.4645757 8.85561444,14.4271379 C9.45393536,14.3645786 10.0412758,14.2159351 10.5991613,13.9848568 C11.3581814,13.6704638 12.0478323,13.209643 12.6287539,12.6287539 C13.209643,12.0478323 13.6704638,11.3581814 13.9848568,10.5991613 C14.2159351,10.0412758 14.3645786,9.45393536 14.4271379,8.85561444 C14.4645757,8.49765803 14.7528046,8.20512821 15.112716,8.20512821 L15.3733797,8.20512821 Z" id="Path" fill="#68EC9D"></path>
                <path d="M15.4384076,6.90642585 C15.8072211,6.85573159 16.0670225,6.52128801 15.9847155,6.16599943 C15.705998,4.96318992 15.1429994,3.83752671 14.3371262,2.88113681 C13.3878816,1.75461936 12.1386769,0.906804882 10.7275895,0.431433243 C9.31650201,-0.0439380658 7.79852676,-0.128351427 6.3414472,0.187526575 C4.88436764,0.503404578 3.54496582,1.20726979 2.47134031,2.22130008 C1.39770807,3.23533367 0.631663151,4.52003568 0.257895421,5.93337314 C-0.115872645,7.3467106 -0.0828031807,8.83359926 0.353448051,10.2296868 C0.789698608,11.6257744 1.6121378,12.8766725 2.72983681,13.8440852 C3.67872729,14.665385 4.80907413,15.2552128 6.0282019,15.5698009 C6.38831598,15.6627129 6.73915746,15.4204557 6.80382963,15.0616709 L6.85069841,14.801834 C6.9154043,14.4430492 6.66909032,14.104252 6.31099935,14.0040178 C5.38539153,13.7448735 4.52762542,13.2861845 3.8023732,12.6584266 C2.90820118,11.8845229 2.2502478,10.8837978 1.90124736,9.76690793 C1.55224691,8.65005108 1.52579134,7.46053356 1.82480741,6.329857 C2.12382011,5.19918043 2.73665807,4.17144257 3.59557735,3.3602025 C4.45445617,2.54897893 5.52596415,1.98588676 6.69164803,1.73318726 C7.85729819,1.48048446 9.07170536,1.54801304 10.2005686,1.92831233 C11.3294318,2.30860832 12.3288158,2.98685924 13.0881912,3.88808904 C13.7041279,4.61908244 14.1427388,5.47366164 14.3750595,6.38760953 C14.4649532,6.74115004 14.8024421,6.99379676 15.1712893,6.94313549 L15.4384076,6.90642585 Z" id="Path" fill="#FFFFFF"></path>
            </g>
        </g>
    </g>
</svg>