<svg width="673" height="184" viewBox="0 0 673 184" fill="none" xmlns="http://www.w3.org/2000/svg">
<path d="M216.014 62L172.244 121.681L128.008 182H159.062L203.771 121.681L248.008 62H216.014Z" fill="url(#paint0_linear_100_75)"/>
<path fill-rule="evenodd" clip-rule="evenodd" d="M200.253 126.429L196.771 121.681L184.509 104.96L172.246 121.681L168.764 126.429L181.008 142.948L184.509 147.671L200.253 126.429Z" fill="#1E1E1E" fill-opacity="0.5"/>
<path d="M203.771 121.681L160.002 62H128.008L188.008 142.948L216.954 182H248.008L203.771 121.681Z" fill="url(#paint1_linear_100_75)"/>
<path d="M112.007 182V152H53.0035C40.3001 152 30.002 141.703 30.002 129C30.002 116.297 40.3001 106 53.0035 106H100.936V76H53.0035C23.7305 76 0 99.7289 0 129C0 158.271 23.7305 182 53.0035 182H112.007Z" fill="url(#paint2_linear_100_75)"/>
<path fill-rule="evenodd" clip-rule="evenodd" d="M98.4551 76C87.248 94.011 67.2734 106 44.5 106C32.252 106 20.8145 102.532 11.1133 96.5247C20.8105 84.0364 35.9688 76 53.0039 76H98.4551Z" fill="#1E1E1E" fill-opacity="0.5"/>
<path d="M112.007 0V30H53.0035C40.3001 30 30.002 40.2975 30.002 53C30.002 65.7026 40.3001 76 53.0035 76H100.936V106H53.0035C23.7305 106 0 82.2711 0 53C0 23.7289 23.7305 0 53.0035 0H112.007Z" fill="url(#paint3_linear_100_75)"/>
<path d="M298.989 82.1453V148.642C298.989 153.148 300.035 156.382 302.129 158.344C304.222 160.307 307.795 161.288 312.849 161.288H328.008V182H308.517C297.401 182 288.883 179.384 282.963 174.151C277.044 168.919 274.084 160.416 274.084 148.642V82.1453H260.008V61.8692H274.084V32H298.989V61.8692H328.008V82.1453H298.989Z" fill="white"/>
<path d="M372.933 79.3893C376.577 73.2893 381.423 68.5327 387.472 65.1196C393.521 61.7065 400.7 60 409.008 60V85.7071H402.667C392.901 85.7071 385.504 88.1762 380.476 93.1143C375.447 98.0524 372.933 106.621 372.933 118.821V182H348.008V61.9607H372.933V79.3893Z" fill="white"/>
<path d="M421.008 121.455C421.008 109.397 423.507 98.7182 428.505 89.42C433.503 80.1219 440.313 72.894 448.933 67.7364C457.553 62.5788 467.078 60 477.51 60C486.927 60 495.148 61.8524 502.175 65.5571C509.201 69.2619 514.815 73.8746 519.017 79.3954V61.9613H544.008V182.039H519.017V164.169C514.815 169.835 509.093 174.557 501.849 178.334C494.605 182.111 486.347 184 477.075 184C466.789 184 457.372 181.349 448.824 176.046C440.276 170.743 433.503 163.333 428.505 153.817C423.507 144.301 421.008 133.514 421.008 121.455ZM519.017 121.891C519.017 113.61 517.314 106.418 513.91 100.316C510.505 94.2144 506.05 89.5653 500.545 86.3691C495.04 83.1728 489.1 81.5747 482.725 81.5747C476.351 81.5747 470.411 83.1365 464.905 86.2601C459.4 89.3837 454.945 93.9602 451.54 99.9895C448.136 106.019 446.434 113.174 446.434 121.455C446.434 129.736 448.136 137.001 451.54 143.248C454.945 149.495 459.436 154.253 465.014 157.522C470.592 160.791 476.495 162.425 482.725 162.425C489.1 162.425 495.04 160.827 500.545 157.631C506.05 154.435 510.505 149.749 513.91 143.575C517.314 137.4 519.017 130.172 519.017 121.891Z" fill="white"/>
<path d="M624.008 82.3316H601.944V182H577.068V82.3316H563.008V62.0933H577.068V53.6062C577.068 39.8238 580.709 29.7772 587.992 23.4663C595.274 17.1554 606.703 14 622.277 14V34.6736C614.778 34.6736 609.515 36.0881 606.487 38.9171C603.458 41.7461 601.944 46.6425 601.944 53.6062V62.0933H624.008V82.3316Z" fill="white"/>
<path d="M656.118 45.8545C651.557 45.8545 647.732 44.3273 644.642 41.2727C641.553 38.2182 640.008 34.4364 640.008 29.9273C640.008 25.4182 641.553 21.6364 644.642 18.5818C647.732 15.5273 651.557 14 656.118 14C660.532 14 664.284 15.5273 667.373 18.5818C670.463 21.6364 672.008 25.4182 672.008 29.9273C672.008 34.4364 670.463 38.2182 667.373 41.2727C664.284 44.3273 660.532 45.8545 656.118 45.8545ZM668.477 61.7818V182H643.318V61.7818H668.477Z" fill="white"/>
<defs>
<linearGradient id="paint0_linear_100_75" x1="248" y1="62" x2="121.783" y2="175.05" gradientUnits="userSpaceOnUse">
<stop stop-color="#3B8FFF"/>
<stop offset="1" stop-color="#086AED"/>
</linearGradient>
<linearGradient id="paint1_linear_100_75" x1="248" y1="62" x2="121.783" y2="175.05" gradientUnits="userSpaceOnUse">
<stop stop-color="#3B8FFF"/>
<stop offset="1" stop-color="#086AED"/>
</linearGradient>
<linearGradient id="paint2_linear_100_75" x1="112" y1="-0.500003" x2="2.32206e-06" y2="129" gradientUnits="userSpaceOnUse">
<stop stop-color="#3B8FFF"/>
<stop offset="1" stop-color="#086AED"/>
</linearGradient>
<linearGradient id="paint3_linear_100_75" x1="112" y1="-2.10371e-06" x2="-6.48274e-06" y2="106" gradientUnits="userSpaceOnUse">
<stop stop-color="#3B8FFF"/>
<stop offset="1" stop-color="#086AED"/>
</linearGradient>
</defs>
</svg>
