<svg xmlns="http://www.w3.org/2000/svg" xmlns:xlink="http://www.w3.org/1999/xlink" viewBox="0 0 378.21 378.21"><defs><style>.cls-1{stroke:#fff;stroke-width:3px;fill:url(#未命名的渐变_601);}.cls-1,.cls-4{stroke-miterlimit:10;}.cls-2{opacity:0.75;fill:url(#未命名的渐变_54);}.cls-3{fill:#0c008a;opacity:0.25;}.cls-4{stroke-width:5px;fill:url(#未命名的渐变_616);stroke:url(#未命名的渐变_616-2);}.cls-5{fill:#0a5aff;}</style><linearGradient id="未命名的渐变_601" x1="189.1" y1="-19.9" x2="189.1" y2="300.18" gradientUnits="userSpaceOnUse"><stop offset="0" stop-color="#262626"/><stop offset="1"/></linearGradient><linearGradient id="未命名的渐变_54" x1="190.76" y1="219.04" x2="315.76" y2="219.04" gradientUnits="userSpaceOnUse"><stop offset="0" stop-color="#208fff"/><stop offset="1" stop-color="#1265ff"/></linearGradient><linearGradient id="未命名的渐变_616" x1="62.44" y1="188" x2="173.38" y2="188" gradientUnits="userSpaceOnUse"><stop offset="0" stop-color="#208fff"/><stop offset="1" stop-color="#2d65ff"/></linearGradient><linearGradient id="未命名的渐变_616-2" x1="59.94" y1="188" x2="175.89" y2="188" xlink:href="#未命名的渐变_616"/></defs><g id="图层_2" data-name="图层 2"><g id="图层_2-2" data-name="图层 2"><circle class="cls-1" cx="189.1" cy="189.1" r="187.6"/><path class="cls-2" d="M254.43,236.13l-28.82,45.41H191L239,219l-48.23-62.45h33.33l30.32,41.28h.77l28.73-41.28h31.82l-46,62.46,46,62.54H283.43L255.2,236.13Z"/><polygon class="cls-3" points="275.78 210.82 269.78 219.02 255.09 197.83 255.2 197.83 260.99 189.49 275.78 210.82"/><path class="cls-4" d="M173.31,253.45l-47.31.08c-10.29,0-18.75-2.64-25.12-7.83a25.1,25.1,0,0,1-9.53-20.38c0-9.23,3.36-15.92,10.25-20.44S119.53,198,134.28,198h28.06V172.8H134.28c-12,0-21.88-2.46-29.35-7.32S93.88,154,93.88,145.28c0-7.46,2.54-13.19,7.55-17s12.58-5.88,22.28-5.88l49.63,0V96.69l-53.09,0c-16.86,0-30.42,4.1-40.3,12.18s-15,19.31-15,33.21c0,9.8,2.33,18.53,6.93,25.94a41.64,41.64,0,0,0,17.92,15.82A40.1,40.1,0,0,0,70.1,198.76C65,206.11,62.44,215.27,62.44,226c0,16.18,6,29.25,17.86,38.84s27.39,14.37,46.39,14.37l46.69.11Z"/><path class="cls-5" d="M124.33,200.87c-.27.43-16.94-4.15-24.49-8a155.56,155.56,0,0,1-15.63-9.28,37,37,0,0,0-8.27,5.25A57.45,57.45,0,0,0,96.7,199.5C109.8,203.11,124.33,200.87,124.33,200.87Z"/></g></g></svg>