<svg xmlns="http://www.w3.org/2000/svg" xmlns:xlink="http://www.w3.org/1999/xlink" viewBox="0 0 1456.05 283.52"><defs><style>.cls-1,.cls-2{stroke:#000;}.cls-1,.cls-2,.cls-6{stroke-miterlimit:10;}.cls-2{stroke-width:2px;}.cls-3{font-size:228px;font-family:Luciole-Regular, Luciole;}.cls-4{opacity:0.75;fill:url(#未命名的渐变_54);}.cls-5{fill:#0c008a;opacity:0.25;}.cls-6{stroke-width:5px;fill:url(#未命名的渐变_616);stroke:url(#未命名的渐变_616-2);}.cls-7{fill:#0a5aff;}</style><linearGradient id="未命名的渐变_54" x1="130.82" y1="138.04" x2="255.82" y2="138.04" gradientUnits="userSpaceOnUse"><stop offset="0" stop-color="#208fff"/><stop offset="1" stop-color="#1265ff"/></linearGradient><linearGradient id="未命名的渐变_616" x1="2.5" y1="107" x2="113.43" y2="107" gradientUnits="userSpaceOnUse"><stop offset="0" stop-color="#208fff"/><stop offset="1" stop-color="#2d65ff"/></linearGradient><linearGradient id="未命名的渐变_616-2" x1="0" y1="107" x2="115.94" y2="107" xlink:href="#未命名的渐变_616"/></defs><g id="图层_2" data-name="图层 2"><g id="图层_2-2" data-name="图层 2"><path class="cls-1" d="M645.48,22h97.26V37H663.49V104.1h66.9V119h-66.9v82.84h-18Z"/><path class="cls-2" d="M763.52,53.66a10.71,10.71,0,1,1,21.42,0,10.71,10.71,0,1,1-21.42,0Zm3.36,32.55h14.7V200.87h-14.7Z"/><path class="cls-2" d="M900.86,135.35c0-25.41-13.86-38.43-34.86-38.43-21.42,0-36.33,13.44-36.33,41.37v62.58H815V86.21h14.7v19.53c7.35-14.28,22.05-21.63,39.06-21.63,26,0,46.62,16,46.62,49.56v67.2H900.86Z"/><path class="cls-2" d="M996,84.53c23.1,0,38.85,12.39,45.36,26.88V86.21h14.7V200.87h-14.7V175.46c-6.72,14.7-22.68,27.09-45.57,27.09-31.29,0-54.6-23.31-54.6-59.22S964.49,84.53,996,84.53Zm2.73,12.81c-24.15,0-42.63,16.8-42.63,46,0,29,18.48,46.41,42.63,46.41,23.52,0,42.63-17.64,42.63-46.2S1022.24,97.34,998.72,97.34Z"/><path class="cls-2" d="M1175.54,135.35c0-25.41-13.86-38.43-34.86-38.43-21.42,0-36.33,13.44-36.33,41.37v62.58h-14.7V86.21h14.7v19.53c7.35-14.28,22.05-21.63,39.06-21.63,26,0,46.62,16,46.62,49.56v67.2h-14.49Z"/><path class="cls-2" d="M1271.51,84.53c28.77,0,47.46,15.33,52.71,39.06h-15.75c-3.78-16.38-17.64-26.46-37-26.46-22.47,0-40.74,15.33-40.74,46.41s18.27,46.62,40.74,46.62c19.32,0,33-9.87,37-26.67h15.75c-5.25,22.89-23.94,39.06-52.71,39.06-32.34,0-55.65-22.68-55.65-59S1239.17,84.53,1271.51,84.53Z"/><path class="cls-2" d="M1400.87,202.55c-32.55,0-56.29-22.68-56.29-59,0-36.54,23.32-59,56.29-59,33.6,0,54.18,23.94,54.18,53.13a100.52,100.52,0,0,1-.42,11.55H1359.5c1.25,26.88,20,40.95,41.37,40.95,19.53,0,32.76-10.29,37-25.62h15.54C1448.12,186.17,1429.64,202.55,1400.87,202.55Zm-41.37-65.31h80.64c.63-26.67-18.69-40.11-39.9-40.11C1379.45,97.13,1361.17,110.57,1359.5,137.24Z"/><text class="cls-3" transform="translate(266.89 200.98)">tra</text><path class="cls-4" d="M194.48,155.13l-28.82,45.41H131.1L179,138,130.82,75.54h33.33l30.32,41.29h.77L224,75.54h31.83l-46,62.46,46,62.54H223.48l-28.23-45.41Z"/><polygon class="cls-5" points="215.84 129.82 209.84 138.02 195.15 116.83 195.25 116.83 201.04 108.49 215.84 129.82"/><path class="cls-6" d="M113.36,172.45l-47.3.08c-10.3,0-18.75-2.63-25.13-7.83a25.09,25.09,0,0,1-9.52-20.38c0-9.23,3.35-15.92,10.24-20.44S59.58,117,74.34,117H102.4V91.8H74.34c-12,0-21.89-2.46-29.36-7.32s-11-11.43-11-20.2c0-7.46,2.54-13.19,7.54-17s12.59-5.89,22.28-5.89l49.64,0V15.69l-53.09,0c-16.87,0-30.43,4.1-40.31,12.18S5,47.16,5,61.06C5,70.86,7.36,79.59,12,87a41.63,41.63,0,0,0,17.92,15.82,40.21,40.21,0,0,0-19.73,14.94C5.07,125.11,2.5,134.28,2.5,145c0,16.18,6,29.25,17.85,38.84s27.39,14.37,46.4,14.37l46.68.11Z"/><path class="cls-7" d="M64.39,119.87c-.27.44-16.94-4.15-24.49-8a155.06,155.06,0,0,1-15.64-9.28A37.11,37.11,0,0,0,16,107.82a57.74,57.74,0,0,0,20.76,10.69C49.86,122.11,64.39,119.87,64.39,119.87Z"/></g></g></svg>