<svg width="16" height="14" viewBox="0 0 16 14" fill="none" xmlns="http://www.w3.org/2000/svg">
<path d="M2.21528 13.3049C1.48586 13.3049 0.93429 13.118 0.560574 12.7443C0.186858 12.3751 0 11.8302 0 11.1098V2.89033C0 2.16541 0.186858 1.61835 0.560574 1.24913C0.93429 0.879919 1.48586 0.695312 2.21528 0.695312H13.778C14.5119 0.695312 15.0657 0.879919 15.4394 1.24913C15.8131 1.61835 16 2.16541 16 2.89033V11.1098C16 11.8302 15.8131 12.3751 15.4394 12.7443C15.0657 13.118 14.5119 13.3049 13.778 13.3049H2.21528ZM2.29633 11.9743H13.7037C14.0144 11.9743 14.253 11.8933 14.4196 11.7312C14.5862 11.5691 14.6695 11.3237 14.6695 10.995V2.99839C14.6695 2.67421 14.5862 2.43107 14.4196 2.26897C14.253 2.10688 14.0144 2.02583 13.7037 2.02583H2.29633C1.98115 2.02583 1.74026 2.10688 1.57366 2.26897C1.41157 2.43107 1.33052 2.67421 1.33052 2.99839V10.995C1.33052 11.3237 1.41157 11.5691 1.57366 11.7312C1.74026 11.8933 1.98115 11.9743 2.29633 11.9743ZM5.36935 12.1905V1.7962H6.63233V12.1905H5.36935ZM4.04559 4.49776H2.66104C2.54397 4.49776 2.44041 4.45273 2.35036 4.36268C2.26481 4.27263 2.22203 4.17357 2.22203 4.06551C2.22203 3.94844 2.26481 3.84713 2.35036 3.76159C2.44041 3.67604 2.54397 3.63326 2.66104 3.63326H4.04559C4.16716 3.63326 4.27072 3.67604 4.35627 3.76159C4.44632 3.84713 4.49135 3.94844 4.49135 4.06551C4.49135 4.17357 4.44632 4.27263 4.35627 4.36268C4.27072 4.45273 4.16716 4.49776 4.04559 4.49776ZM4.04559 6.30781H2.66104C2.54397 6.30781 2.44041 6.26503 2.35036 6.17948C2.26481 6.08943 2.22203 5.98587 2.22203 5.8688C2.22203 5.75624 2.26481 5.65718 2.35036 5.57163C2.44041 5.48608 2.54397 5.44331 2.66104 5.44331H4.04559C4.16716 5.44331 4.27072 5.48608 4.35627 5.57163C4.44632 5.65718 4.49135 5.75624 4.49135 5.8688C4.49135 5.98587 4.44632 6.08943 4.35627 6.17948C4.27072 6.26503 4.16716 6.30781 4.04559 6.30781ZM4.04559 8.1111H2.66104C2.54397 8.1111 2.44041 8.06833 2.35036 7.98278C2.26481 7.89723 2.22203 7.79817 2.22203 7.6856C2.22203 7.56854 2.26481 7.46723 2.35036 7.38168C2.44041 7.29613 2.54397 7.25335 2.66104 7.25335H4.04559C4.16716 7.25335 4.27072 7.29613 4.35627 7.38168C4.44632 7.46723 4.49135 7.56854 4.49135 7.6856C4.49135 7.79817 4.44632 7.89723 4.35627 7.98278C4.27072 8.06833 4.16716 8.1111 4.04559 8.1111Z" fill="black"/>
</svg>
