<svg width="24" height="24" viewBox="0 0 24 24" fill="none" xmlns="http://www.w3.org/2000/svg">
<rect x="0.5" y="0.5" width="23" height="23" rx="3.5" stroke="#C9C9CB"/>
<path d="M7.54194 17.5018C7.84612 17.5018 8.09816 17.3932 8.29805 17.1759L11.9874 13.4735L15.7027 17.1759C15.9113 17.3932 16.159 17.5018 16.4458 17.5018C16.7326 17.5018 16.9781 17.3975 17.1823 17.1889C17.3865 16.9803 17.4887 16.7326 17.4887 16.4458C17.4887 16.159 17.3844 15.9113 17.1759 15.7027L13.4735 12.0004L17.1888 8.27198C17.3975 8.0634 17.5018 7.82005 17.5018 7.54194C17.5018 7.25514 17.3996 7.00962 17.1954 6.80538C16.9911 6.60114 16.7456 6.49902 16.4589 6.49902C16.1894 6.49902 15.9504 6.60766 15.7418 6.82493L11.9874 10.5403L8.27198 6.83798C8.08078 6.62939 7.83743 6.52509 7.54194 6.52509C7.25514 6.52509 7.00962 6.62504 6.80538 6.82493C6.60114 7.02483 6.49902 7.26817 6.49902 7.55498C6.49902 7.84178 6.60332 8.08512 6.8119 8.28501L10.5142 12.0004L6.8119 15.7158C6.60332 15.9157 6.49902 16.159 6.49902 16.4458C6.49902 16.7326 6.60114 16.9803 6.80538 17.1889C7.00962 17.3975 7.25514 17.5018 7.54194 17.5018Z" fill="white"/>
</svg>
