<svg width="22" height="24" viewBox="0 0 22 24" fill="none" xmlns="http://www.w3.org/2000/svg">
<path d="M8.3132 8.64229H9.08108V7.51192C9.08108 7.27345 9.14388 7.08982 9.26948 6.96105C9.39507 6.83227 9.58188 6.76789 9.82989 6.76789H11.938V9.21463C11.938 9.49126 12.0056 9.69635 12.1407 9.82989C12.2758 9.96344 12.4801 10.0302 12.7536 10.0302H14.9857V14.1081C14.9857 14.3466 14.9221 14.5302 14.7949 14.659C14.6677 14.7878 14.4801 14.8522 14.2321 14.8522H13.2925V15.6201H14.2751C14.7679 15.6201 15.1375 15.4945 15.384 15.2433C15.6304 14.9921 15.7536 14.6185 15.7536 14.1224V10.2496C15.7536 9.95708 15.7186 9.70906 15.6487 9.50556C15.5787 9.30207 15.4547 9.10811 15.2766 8.92369L12.868 6.47695C12.6995 6.30207 12.5135 6.17886 12.31 6.10731C12.1065 6.03577 11.876 6 11.6184 6H9.79173C9.29889 6 8.92925 6.1256 8.68283 6.37679C8.43641 6.62798 8.3132 7.00159 8.3132 7.49762V8.64229ZM12.6296 9.10016V7.14467L14.7854 9.33864H12.8633C12.7806 9.33864 12.721 9.32035 12.6844 9.28378C12.6478 9.24722 12.6296 9.18601 12.6296 9.10016ZM6 16.5024C6 17.0016 6.12321 17.376 6.36963 17.6256C6.61606 17.8752 6.98569 18 7.47854 18H11.9618C12.4547 18 12.8243 17.8744 13.0707 17.6232C13.3172 17.372 13.4404 16.9984 13.4404 16.5024V12.7775C13.4404 12.574 13.4293 12.4022 13.407 12.2623C13.3848 12.1224 13.341 11.9944 13.2759 11.8784C13.2107 11.7623 13.1145 11.6391 12.9873 11.5087L10.3593 8.83307C10.1781 8.64547 10 8.52305 9.82512 8.46582C9.65024 8.40859 9.42925 8.37997 9.16216 8.37997H7.47854C6.98569 8.37997 6.61606 8.50557 6.36963 8.75676C6.12321 9.00795 6 9.38156 6 9.87758V16.5024ZM6.76789 16.4881V9.88712C6.76789 9.65183 6.83069 9.4698 6.95628 9.34102C7.08188 9.21224 7.26868 9.14785 7.51669 9.14785H9.08108V11.9142C9.08108 12.2162 9.1566 12.442 9.30763 12.5914C9.45867 12.7409 9.68204 12.8156 9.97774 12.8156H12.6725V16.4881C12.6725 16.7265 12.6089 16.9102 12.4817 17.0389C12.3545 17.1677 12.1685 17.2321 11.9237 17.2321H7.51192C7.26709 17.2321 7.08188 17.1677 6.95628 17.0389C6.83069 16.9102 6.76789 16.7265 6.76789 16.4881ZM10.0684 12.0954C9.97298 12.0954 9.90461 12.0747 9.86328 12.0334C9.82194 11.9921 9.80127 11.9237 9.80127 11.8283V9.32433L12.5247 12.0954H10.0684Z" fill="black"/>
</svg>
