<svg width="16" height="16" viewBox="0 0 16 16" fill="none" xmlns="http://www.w3.org/2000/svg">
<path d="M8.85586 10.1599L12.2714 6.53573C12.3988 6.40247 12.4655 6.24603 12.4713 6.06641C12.4771 5.8868 12.4192 5.73906 12.2975 5.62318C12.1642 5.48412 12.0063 5.41314 11.8238 5.41025C11.6413 5.40735 11.4863 5.47253 11.3588 5.60579L7.99546 9.16909L4.63207 5.60579C4.51039 5.47253 4.35685 5.40735 4.17144 5.41025C3.98604 5.41314 3.8296 5.48412 3.70214 5.62318C3.58626 5.74485 3.52832 5.89404 3.52832 6.07076C3.52832 6.24748 3.59495 6.40247 3.7282 6.53573L7.13506 10.1599C7.32046 10.351 7.51021 10.4785 7.70431 10.5423C7.89841 10.606 8.09396 10.606 8.29095 10.5423C8.48795 10.4785 8.67625 10.351 8.85586 10.1599Z" fill="#666666"/>
</svg>
