<svg width="12" height="12" viewBox="0 0 12 12" fill="none" xmlns="http://www.w3.org/2000/svg">
<path d="M5.99722 3.17825C5.60923 3.17825 5.24526 3.25195 4.90531 3.39935C4.56535 3.54675 4.26512 3.75034 4.00461 4.01013C3.74411 4.26992 3.53995 4.57024 3.39214 4.9111C3.24434 5.25195 3.17044 5.61584 3.17044 6.00277C3.17044 6.3897 3.24434 6.75266 3.39214 7.09166C3.53995 7.43066 3.74411 7.73005 4.00461 7.98985C4.26512 8.24965 4.56535 8.45324 4.90531 8.60063C5.24526 8.74801 5.60923 8.82171 5.99722 8.82171C6.3815 8.82171 6.74456 8.74801 7.08639 8.60063C7.42819 8.45324 7.72842 8.24965 7.98708 7.98985C8.24574 7.73005 8.44897 7.43066 8.59677 7.09166C8.74456 6.75266 8.81846 6.3897 8.81846 6.00277C8.81846 5.61584 8.74456 5.25195 8.59677 4.9111C8.44897 4.57024 8.24574 4.26992 7.98708 4.01013C7.72842 3.75034 7.42819 3.54675 7.08639 3.39935C6.74456 3.25195 6.3815 3.17825 5.99722 3.17825ZM6.48499 0.486411C6.48499 0.353753 6.43696 0.23952 6.34089 0.143712C6.24481 0.0479041 6.13026 0 5.99722 0C5.86789 0 5.75519 0.0479041 5.65912 0.143712C5.56304 0.23952 5.51501 0.353753 5.51501 0.486411V1.64717C5.51501 1.77614 5.56304 1.88853 5.65912 1.98434C5.75519 2.08015 5.86789 2.12805 5.99722 2.12805C6.13026 2.12805 6.24481 2.08015 6.34089 1.98434C6.43696 1.88853 6.48499 1.77614 6.48499 1.64717V0.486411ZM8.73531 2.59235C8.64295 2.68447 8.59677 2.79779 8.59677 2.93228C8.59677 3.06678 8.64295 3.1801 8.73531 3.27222C8.82771 3.36434 8.94134 3.41133 9.0762 3.41317C9.21109 3.41501 9.32657 3.36803 9.42265 3.27222L10.2485 2.44864C10.3409 2.35651 10.3871 2.24228 10.3871 2.10594C10.3871 1.9696 10.3409 1.85536 10.2485 1.76324C10.1561 1.67111 10.0434 1.62505 9.91036 1.62505C9.77736 1.62505 9.66466 1.67111 9.57226 1.76324L8.73531 2.59235ZM11.5122 6.48365C11.6453 6.48365 11.7598 6.43575 11.8559 6.33994C11.952 6.24414 12 6.13175 12 6.00277C12 5.8701 11.952 5.75679 11.8559 5.66283C11.7598 5.56886 11.6453 5.52187 11.5122 5.52187H10.3538C10.2245 5.52187 10.1118 5.56886 10.0157 5.66283C9.91963 5.75679 9.8716 5.8701 9.8716 6.00277C9.8716 6.13175 9.91963 6.24414 10.0157 6.33994C10.1118 6.43575 10.2245 6.48365 10.3538 6.48365H11.5122ZM9.41708 8.73884C9.32472 8.6467 9.21109 8.60063 9.0762 8.60063C8.94134 8.60063 8.82771 8.6467 8.73531 8.73884C8.64295 8.83095 8.59677 8.94334 8.59677 9.07601C8.59677 9.20865 8.64295 9.32287 8.73531 9.41867L9.57226 10.2478C9.66466 10.3399 9.77736 10.3851 9.91036 10.3832C10.0434 10.3814 10.1561 10.3344 10.2485 10.2423C10.3409 10.1502 10.3871 10.0368 10.3871 9.90233C10.3871 9.76784 10.3409 9.65453 10.2485 9.56238L9.41708 8.73884ZM6.48499 10.3584C6.48499 10.2257 6.43696 10.1114 6.34089 10.0156C6.24481 9.91983 6.13026 9.87193 5.99722 9.87193C5.86789 9.87193 5.75519 9.91983 5.65912 10.0156C5.56304 10.1114 5.51501 10.2257 5.51501 10.3584V11.5191C5.51501 11.6481 5.56304 11.7605 5.65912 11.8563C5.75519 11.9521 5.86789 12 5.99722 12C6.13026 12 6.24481 11.9521 6.34089 11.8563C6.43696 11.7605 6.48499 11.6481 6.48499 11.5191V10.3584ZM1.74596 9.55689C1.65358 9.649 1.60739 9.76231 1.60739 9.89684C1.60739 10.0313 1.65173 10.1446 1.74042 10.2367C1.83279 10.3289 1.94734 10.3759 2.08407 10.3777C2.22078 10.3795 2.33533 10.3344 2.42771 10.2423L3.25358 9.41867C3.34595 9.32657 3.39307 9.21325 3.39492 9.07873C3.39676 8.94425 3.3515 8.83095 3.25912 8.73884C3.16674 8.6467 3.05219 8.60063 2.91547 8.60063C2.77875 8.60063 2.6642 8.6467 2.57182 8.73884L1.74596 9.55689ZM0.482216 5.52187C0.352886 5.52187 0.240184 5.56886 0.144111 5.66283C0.0480369 5.75679 0 5.8701 0 6.00277C0 6.13175 0.0480369 6.24414 0.144111 6.33994C0.240184 6.43575 0.352886 6.48365 0.482216 6.48365H1.64064C1.77367 6.48365 1.88822 6.43575 1.98429 6.33994C2.08037 6.24414 2.1284 6.13175 2.1284 6.00277C2.1284 5.8701 2.08037 5.75679 1.98429 5.66283C1.88822 5.56886 1.77367 5.52187 1.64064 5.52187H0.482216ZM2.57182 3.27222C2.6642 3.36434 2.77783 3.41041 2.9127 3.41041C3.04757 3.41041 3.1612 3.36434 3.25358 3.27222C3.34595 3.18378 3.39307 3.07047 3.39492 2.93228C3.39676 2.7941 3.3515 2.68079 3.25912 2.59235L2.43325 1.76324C2.34457 1.6748 2.23279 1.62966 2.09792 1.62782C1.96305 1.62598 1.84757 1.67111 1.7515 1.76324C1.65912 1.85536 1.61293 1.96868 1.61293 2.10318C1.61293 2.23768 1.65727 2.35099 1.74596 2.44311L2.57182 3.27222Z" fill="#FFCC00"/>
</svg>
