<svg width="6" height="12" viewBox="0 0 6 12" fill="none" xmlns="http://www.w3.org/2000/svg">
<path d="M5.77115 4.02937L3.52364 0.357876C3.42676 0.199654 3.30808 0.0938921 3.16761 0.0405893C3.02714 -0.0126805 2.88586 -0.0134735 2.74376 0.038209C2.60168 0.0898585 2.4822 0.196414 2.38532 0.357876L0.137781 4.02937C0.0344459 4.19731 -0.0107635 4.35555 0.00215256 4.50408C0.0150719 4.65262 0.0772349 4.7737 0.188642 4.86735C0.300048 4.96099 0.451015 5.00781 0.641542 5.00781H5.26255C5.45953 5.00781 5.61291 4.96018 5.72269 4.86492C5.83251 4.76965 5.89307 4.64776 5.90438 4.49922C5.91566 4.35069 5.87125 4.19407 5.77115 4.02937Z" fill="#666666"/>
<path d="M3.52384 11.6373L5.77136 7.97065C5.865 7.81565 5.90698 7.66388 5.89729 7.51534C5.8876 7.3668 5.82868 7.24248 5.72052 7.14238C5.61232 7.04226 5.45973 6.9922 5.26275 6.9922H0.641743C0.451217 6.9922 0.301865 7.04146 0.193689 7.13996C0.0855099 7.23845 0.0249619 7.36196 0.0120459 7.5105C-0.000873473 7.65904 0.0411054 7.81243 0.137982 7.97065L2.38552 11.6373C2.4824 11.802 2.60188 11.9102 2.74397 11.9618C2.88606 12.0135 3.02734 12.0127 3.16781 11.9594C3.30828 11.9061 3.42696 11.7988 3.52384 11.6373ZM3.05398 11.119C3.02815 11.1578 2.99746 11.182 2.96192 11.1917C2.9264 11.2014 2.88927 11.1772 2.85051 11.119L0.84034 7.86893C0.824193 7.84633 0.817734 7.81242 0.820961 7.76722C0.824192 7.72201 0.858099 7.69941 0.922682 7.69941H4.98667C5.0448 7.69941 5.0779 7.7204 5.08597 7.76237C5.09404 7.80435 5.08839 7.83987 5.06901 7.86893L3.05398 11.119Z" fill="#666666"/>
</svg>
