<svg width="7" height="12" viewBox="0 0 7 12" fill="none" xmlns="http://www.w3.org/2000/svg">
<path d="M5.91373 4.02937L3.66622 0.357876C3.56933 0.199654 3.45065 0.0938921 3.31019 0.0405893C3.16972 -0.0126805 3.02843 -0.0134735 2.88634 0.038209C2.74426 0.0898585 2.62477 0.196414 2.5279 0.357876L0.280359 4.02937C0.177024 4.19731 0.131815 4.35555 0.144731 4.50408C0.15765 4.65262 0.219813 4.7737 0.33122 4.86735C0.442627 4.96099 0.593593 5.00781 0.78412 5.00781H5.40513C5.60211 5.00781 5.75549 4.96018 5.86527 4.86492C5.97509 4.76965 6.03565 4.64776 6.04696 4.49922C6.05824 4.35069 6.01383 4.19407 5.91373 4.02937Z" fill="#666666"/>
<path d="M3.66642 11.6373L5.91394 7.97065C6.00758 7.81565 6.04956 7.66388 6.03987 7.51534C6.03018 7.3668 5.97126 7.24248 5.86309 7.14238C5.7549 7.04226 5.60231 6.9922 5.40533 6.9922H0.784321C0.593795 6.9922 0.444444 7.04146 0.336267 7.13996C0.228088 7.23845 0.16754 7.36196 0.154624 7.5105C0.141705 7.65904 0.183684 7.81243 0.280561 7.97065L2.5281 11.6373C2.62498 11.802 2.74446 11.9102 2.88654 11.9618C3.02864 12.0135 3.16992 12.0127 3.31039 11.9594C3.45086 11.9061 3.56954 11.7988 3.66642 11.6373ZM3.19655 11.119C3.17073 11.1578 3.14004 11.182 3.10449 11.1917C3.06898 11.2014 3.03185 11.1772 2.99309 11.119L0.982918 7.86893C0.966772 7.84633 0.960312 7.81242 0.963539 7.76722C0.96677 7.72201 1.00068 7.69941 1.06526 7.69941H5.12925C5.18738 7.69941 5.22048 7.7204 5.22855 7.76237C5.23662 7.80435 5.23096 7.83987 5.21159 7.86893L3.19655 11.119Z" fill="#666666"/>
</svg>
