<svg width="7" height="12" viewBox="0 0 7 12" fill="none" xmlns="http://www.w3.org/2000/svg">
<path d="M6.05729 4.02937L3.80978 0.357876C3.71289 0.199654 3.59421 0.0938921 3.45374 0.0405893C3.31327 -0.0126805 3.17199 -0.0134735 3.0299 0.038209C2.88781 0.0898585 2.76833 0.196414 2.67145 0.357876L0.423914 4.02937C0.320579 4.19731 0.275369 4.35555 0.288285 4.50408C0.301205 4.65262 0.363368 4.7737 0.474774 4.86735C0.586181 4.96099 0.737148 5.00781 0.927675 5.00781H5.54868C5.74566 5.00781 5.89904 4.96018 6.00883 4.86492C6.11864 4.76965 6.17921 4.64776 6.19052 4.49922C6.20179 4.35069 6.15738 4.19407 6.05729 4.02937Z" fill="#666666"/>
<path d="M3.80998 11.6373L6.05749 7.97065C6.15114 7.81565 6.19311 7.66388 6.18343 7.51534C6.17374 7.3668 6.11481 7.24248 6.00665 7.14238C5.89845 7.04226 5.74586 6.9922 5.54888 6.9922H0.927876C0.73735 6.9922 0.587998 7.04146 0.479822 7.13996C0.371643 7.23845 0.311095 7.36196 0.298179 7.5105C0.285259 7.65904 0.327238 7.81243 0.424115 7.97065L2.67165 11.6373C2.76853 11.802 2.88801 11.9102 3.0301 11.9618C3.17219 12.0135 3.31347 12.0127 3.45394 11.9594C3.59441 11.9061 3.71309 11.7988 3.80998 11.6373ZM3.34011 11.119C3.31428 11.1578 3.2836 11.182 3.24805 11.1917C3.21253 11.2014 3.1754 11.1772 3.13665 11.119L1.12647 7.86893C1.11033 7.84633 1.10387 7.81242 1.10709 7.76722C1.11032 7.72201 1.14423 7.69941 1.20882 7.69941H5.2728C5.33094 7.69941 5.36404 7.7204 5.37211 7.76237C5.38017 7.80435 5.37452 7.83987 5.35514 7.86893L3.34011 11.119Z" fill="#666666"/>
</svg>
