<svg width="12" height="12" viewBox="0 0 12 12" fill="none" xmlns="http://www.w3.org/2000/svg">
<path d="M9.409 8.10482C8.5859 8.10482 7.84287 7.98183 7.17991 7.73587C6.51697 7.4899 5.94931 7.13507 5.47694 6.67138C5.00456 6.20767 4.64267 5.64819 4.39128 4.99294C4.13988 4.3377 4.01419 3.59879 4.01419 2.77621C4.01419 2.5504 4.03142 2.30343 4.06588 2.03528C4.10035 1.76714 4.14597 1.50807 4.20273 1.25806C4.2595 1.00806 4.32438 0.798386 4.39736 0.629029C4.42575 0.560483 4.44399 0.503024 4.4521 0.456653C4.46021 0.410282 4.46426 0.372984 4.46426 0.344758C4.46426 0.264113 4.43385 0.186492 4.37303 0.111895C4.31221 0.0372984 4.22301 0 4.10542 0C4.07298 0 4.02432 0.00504033 3.95945 0.015121C3.89457 0.0252016 3.82767 0.0423387 3.75874 0.0665323C3.00862 0.364919 2.35175 0.811492 1.78814 1.40625C1.22453 2.00101 0.785604 2.6875 0.471363 3.46572C0.157121 4.24395 0 5.05645 0 5.90323C0 6.79437 0.159148 7.6109 0.477445 8.35281C0.79574 9.09475 1.23973 9.7389 1.80942 10.2853C2.37911 10.8316 3.04612 11.254 3.81043 11.5524C4.57475 11.8508 5.40091 12 6.28892 12C6.94577 12 7.57221 11.9083 8.16824 11.7248C8.76431 11.5413 9.31172 11.2873 9.81046 10.9627C10.3092 10.6381 10.741 10.2611 11.1059 9.83164C11.4708 9.40222 11.7466 8.94154 11.9331 8.44961C11.9615 8.37702 11.9797 8.30947 11.9878 8.24696C11.9959 8.18449 12 8.13913 12 8.11089C12 7.998 11.9615 7.90726 11.8844 7.83868C11.8074 7.77014 11.7263 7.73587 11.6411 7.73587C11.5722 7.73587 11.485 7.75401 11.3796 7.79031C11.1444 7.86694 10.8505 7.93852 10.4977 8.00504C10.145 8.07156 9.78206 8.10482 9.409 8.10482Z" fill="#5B53B2"/>
</svg>
