<svg width="328" height="64" viewBox="0 0 328 64" fill="none" xmlns="http://www.w3.org/2000/svg">
<g clip-path="url(#clip0_348_7074)">
<path opacity="0.3" d="M328 0L328 22.6835V64H0V22.6835L10.5806 17.0127H23.8064L34.3871 13.7722L42.3225 15.3924L50.258 11.3418L68.7742 14.5823L95.2257 22.6835H103.161L116.387 24.3038L129.613 23.4937L137.548 26.7342L145.484 23.4937L156.064 24.3038L161.355 21.8734L171.935 22.6835L179.871 24.3038H198.387L206.322 21.0633L214.258 22.6835L219.548 21.8734H232.774L243.355 23.4937L251.29 18.6329L267.161 23.4937L285.677 29.9747L293.613 25.9241L312.129 30.7848L320.064 28.3544L328 0Z" fill="url(#paint0_linear_348_7074)"/>
<path d="M328 0L320.049 28.5526L312.37 30.9166C312.193 30.9711 312.004 30.9749 311.825 30.9277L293.548 26.1053L285.597 30.1842L267.046 23.6579L251.145 18.7632L243.194 23.6579L232.593 22.0263H219.342L214.042 22.8421L206.091 21.2105L198.141 24.4737H179.589L171.639 22.8421L161.038 22.0263L155.738 24.4737L145.137 23.6579L137.186 26.9211L129.236 23.6579L115.985 24.4737L102.734 22.8421H94.7835L68.2816 14.6842L49.7303 11.4211L41.7797 15.5L33.8292 13.8684L23.2284 17.1316H9.97744L-9.79665e-06 22.8421" stroke="#34C85A" stroke-opacity="0.5" stroke-width="0.5"/>
</g>
<defs>
<linearGradient id="paint0_linear_348_7074" x1="167.967" y1="0" x2="167.967" y2="64" gradientUnits="userSpaceOnUse">
<stop stop-color="#34C85A" stop-opacity="0.48"/>
<stop offset="0.895833" stop-color="#34C85A" stop-opacity="0"/>
</linearGradient>
<clipPath id="clip0_348_7074">
<rect width="328" height="64" fill="white" transform="matrix(-1 0 0 1 328 0)"/>
</clipPath>
</defs>
</svg>
