<svg width="89" height="24" viewBox="0 0 89 24" fill="none" xmlns="http://www.w3.org/2000/svg">
<path d="M84.0935 0L78.3517 7.82908L72.5488 15.7419H76.6225L82.4875 7.82908L88.2905 0H84.0935Z" fill="url(#paint0_linear_2998_111596)"/>
<path fill-rule="evenodd" clip-rule="evenodd" d="M82.0258 8.4516L81.569 7.82875L79.9605 5.63525L78.3518 7.82875L77.895 8.4516L79.5012 10.6186L79.9605 11.2382L82.0258 8.4516Z" fill="#1E1E1E" fill-opacity="0.5"/>
<path d="M82.4875 7.82908L76.7458 0H72.5488L80.4197 10.6189L84.2168 15.7419H88.2905L82.4875 7.82908Z" fill="url(#paint1_linear_2998_111596)"/>
<path d="M66.9023 23.628L66.7473 20.7148V15.6632C66.7473 14.6094 66.6337 13.7313 66.4064 13.0289C66.1998 12.3057 65.8486 11.7582 65.3527 11.3863C64.8775 10.9937 64.237 10.7974 63.4312 10.7974C62.6874 10.7974 62.0366 10.9524 61.4787 11.2623C60.9209 11.5722 60.4457 12.0578 60.0531 12.7189L57.0159 11.6032C57.3465 10.9214 57.7804 10.2912 58.3176 9.71274C58.8754 9.11356 59.5676 8.63835 60.394 8.28711C61.2411 7.93587 62.2535 7.76025 63.4312 7.76025C64.9395 7.76025 66.1998 8.05984 67.2122 8.65902C68.2246 9.23753 68.9684 10.0743 69.4436 11.1694C69.9395 12.2644 70.1874 13.5867 70.1874 15.1363L70.0944 23.628H66.9023ZM62.4395 24C60.58 24 59.1337 23.5867 58.1006 22.7603C57.0882 21.9338 56.582 20.7665 56.582 19.2582C56.582 17.6466 57.1192 16.4173 58.1936 15.5702C59.2886 14.7231 60.8072 14.2995 62.7494 14.2995H66.9023V16.9648H63.8651C62.4808 16.9648 61.5097 17.1611 60.9519 17.5537C60.394 17.9256 60.1151 18.4628 60.1151 19.1652C60.1151 19.7644 60.3527 20.2396 60.8279 20.5909C61.3238 20.9214 62.0056 21.0867 62.8734 21.0867C63.6585 21.0867 64.3403 20.9111 64.9188 20.5599C65.4973 20.2086 65.9415 19.7437 66.2515 19.1652C66.582 18.5867 66.7473 17.9359 66.7473 17.2127H67.7701C67.7701 19.3202 67.3465 20.9834 66.4994 22.2024C65.6523 23.4008 64.299 24 62.4395 24Z" fill="black"/>
<path d="M48.4848 15.3844C48.4848 13.7108 48.805 12.3368 49.4455 11.2625C50.086 10.1881 50.9125 9.39263 51.9249 8.8761C52.9579 8.33891 54.0323 8.07031 55.148 8.07031V11.3864C54.1976 11.3864 53.2989 11.5207 52.4517 11.7893C51.6253 12.0373 50.9538 12.4505 50.4373 13.029C49.9208 13.6075 49.6625 14.372 49.6625 15.3224L48.4848 15.3844ZM46.1914 23.6282V8.1323H49.6625V23.6282H46.1914Z" fill="black"/>
<path d="M40.1921 23.9999C38.5599 23.9999 37.3099 23.597 36.4421 22.7912C35.595 21.9647 35.1714 20.7871 35.1714 19.2581V3.29736H38.6115V18.6073C38.6115 19.3304 38.7768 19.878 39.1074 20.2499C39.4586 20.6218 39.9648 20.8077 40.626 20.8077C40.8326 20.8077 41.0599 20.7664 41.3078 20.6838C41.5557 20.6011 41.8347 20.4461 42.1446 20.2189L43.4153 22.8532C42.8781 23.2251 42.3409 23.504 41.8037 23.69C41.2665 23.8966 40.7293 23.9999 40.1921 23.9999ZM32.5991 11.1073V8.13208H42.7954V11.1073H32.5991Z" fill="black"/>
<path fill-rule="evenodd" clip-rule="evenodd" d="M23.982 13.0478L27.5987 8.1167H31.7302L26.0176 15.8234L31.7302 23.6125H27.72L23.9821 18.5696L23.982 18.5696L20.2441 23.6125H16.2339L21.9464 15.8234L21.9464 15.8233L16.2339 8.1167H20.3655L23.982 13.0478Z" fill="black"/>
<path fill-rule="evenodd" clip-rule="evenodd" d="M14.532 3.89212V0H6.8768C3.07885 0 0 3.07853 0 6.87608C0 8.80973 0.798242 10.557 2.08321 11.8063C0.798242 13.0556 0 14.8028 0 16.7365C0 20.534 3.07885 23.6125 6.8768 23.6125H14.532V19.7204H6.8768C5.22863 19.7204 3.89253 18.3845 3.89253 16.7365C3.89253 15.0884 5.22863 13.7525 6.8768 13.7525H13.0957V13.7522V9.86039V9.86004H6.8768C5.22863 9.86004 3.89253 8.52408 3.89253 6.87608C3.89253 5.22809 5.22863 3.89212 6.8768 3.89212H14.532Z" fill="black"/>
<defs>
<linearGradient id="paint0_linear_2998_111596" x1="92.3552" y1="7.84847" x2="72.1602" y2="14.6425" gradientUnits="userSpaceOnUse">
<stop stop-color="#7A87FF"/>
<stop offset="1" stop-color="#575BBE"/>
</linearGradient>
<linearGradient id="paint1_linear_2998_111596" x1="92.3552" y1="7.84847" x2="72.1602" y2="14.6425" gradientUnits="userSpaceOnUse">
<stop stop-color="#7A87FF"/>
<stop offset="1" stop-color="#575BBE"/>
</linearGradient>
</defs>
</svg>
