<svg width="7" height="5" viewBox="0 0 7 5" fill="none" xmlns="http://www.w3.org/2000/svg">
<path d="M6.19987 4.02937L3.95235 0.357876C3.85547 0.199654 3.73679 0.0938921 3.59632 0.0405893C3.45585 -0.0126805 3.31457 -0.0134735 3.17247 0.038209C3.03039 0.0898585 2.91091 0.196414 2.81403 0.357876L0.566492 4.02937C0.463157 4.19731 0.417947 4.35555 0.430863 4.50408C0.443783 4.65262 0.505946 4.7737 0.617353 4.86735C0.728759 4.96099 0.879726 5.00781 1.07025 5.00781H5.69126C5.88824 5.00781 6.04162 4.96018 6.15141 4.86492C6.26122 4.76965 6.32178 4.64776 6.33309 4.49922C6.34437 4.35069 6.29996 4.19407 6.19987 4.02937Z" fill="#666666"/>
</svg>
