<svg width="17" height="16" viewBox="0 0 17 16" fill="none" xmlns="http://www.w3.org/2000/svg">
<path fill-rule="evenodd" clip-rule="evenodd" d="M11.515 15.3725C10.5503 15.791 9.52126 16 8.42871 16C7.33616 16 6.30714 15.791 5.34244 15.3725C4.96283 15.2078 4.60126 15.0188 4.25695 14.8051C3.72597 14.4753 3.23655 14.0867 2.7895 13.6392C2.05224 12.902 1.4742 12.051 1.05616 11.0863C0.638123 10.1216 0.428711 9.09294 0.428711 8C0.428711 6.90706 0.638123 5.87843 1.05616 4.91373C1.4742 3.94902 2.05067 3.09804 2.78557 2.36078C3.52048 1.62353 4.36989 1.04588 5.33459 0.627451C6.2993 0.20902 7.32832 0 8.42087 0C9.51342 0 10.544 0.20902 11.5111 0.627451C12.4781 1.04588 13.3307 1.62353 14.0679 2.36078C14.8052 3.09804 15.3832 3.94902 15.8013 4.91373C16.2193 5.87843 16.4287 6.90706 16.4287 8C16.4287 9.09294 16.2193 10.1216 15.8013 11.0863C15.3832 12.051 14.8052 12.902 14.0679 13.6392C13.3307 14.3765 12.4797 14.9541 11.515 15.3725ZM4.01695 10.9686C4.22871 11.1804 4.544 11.2863 4.96204 11.2863H11.9111C12.3346 11.2863 12.6507 11.1804 12.8601 10.9686C12.9558 10.8722 13.0295 10.7553 13.0813 10.6176C13.1432 10.4537 13.1738 10.2608 13.1738 10.0392V7.81961C13.1738 7.63647 13.1558 7.49294 13.1189 7.38824C13.082 7.28353 13.0224 7.17373 12.9385 7.05882L11.5189 5.12941C11.362 4.9149 11.2185 4.75176 11.0875 4.63922C10.9566 4.52667 10.813 4.44824 10.6562 4.40392C10.4993 4.35961 10.3032 4.33726 10.0679 4.33726H6.80518C6.56989 4.33726 6.37224 4.35961 6.21302 4.40392C6.1691 4.41608 6.12675 4.43098 6.08518 4.44824C5.97459 4.49412 5.87263 4.55765 5.77773 4.63922C5.64675 4.75176 5.50557 4.9149 5.3542 5.12941L3.93459 7.05882C3.84597 7.17373 3.784 7.28353 3.75028 7.38824C3.71655 7.49294 3.6993 7.63647 3.6993 7.81961V10.0392C3.6993 10.4471 3.80518 10.7569 4.01695 10.9686ZM7.15812 7.56078H4.83655C4.77381 7.56078 4.73459 7.54 4.71891 7.49804C4.70871 7.47098 4.70793 7.44275 4.71734 7.41373C4.72283 7.39765 4.73146 7.38118 4.74244 7.36471L6.13851 5.45882C6.21695 5.34902 6.30479 5.26941 6.40126 5.21961C6.49773 5.1698 6.61695 5.1451 6.75812 5.1451H10.1228C10.264 5.1451 10.3817 5.1698 10.4758 5.21961C10.5699 5.26941 10.6562 5.34902 10.7346 5.45882L12.1385 7.36471C12.1644 7.40118 12.1699 7.44314 12.1542 7.4902C12.1385 7.53725 12.0993 7.56078 12.0366 7.56078H9.71498C9.60518 7.56078 9.52518 7.5949 9.47577 7.66274C9.42636 7.73059 9.40126 7.80392 9.40126 7.88235V7.98431C9.40126 8.26667 9.31342 8.48902 9.13851 8.65098C9.024 8.75725 8.88361 8.82863 8.71812 8.86549C8.63106 8.88471 8.53695 8.89412 8.43655 8.89412C8.144 8.89412 7.91106 8.81294 7.73851 8.65098C7.56597 8.48902 7.47969 8.26667 7.47969 7.98431V7.88235C7.47969 7.80392 7.45224 7.73059 7.39734 7.66274C7.34244 7.5949 7.26244 7.56078 7.15812 7.56078Z" fill="#EC6F14"/>
</svg>
