<svg width="6" height="6" viewBox="0 0 6 6" fill="none" xmlns="http://www.w3.org/2000/svg">
<path d="M0 0.444874C0 0.518386 0.0144558 0.587619 0.0433674 0.652573C0.072279 0.717526 0.106853 0.788001 0.147093 0.863998L2.49654 5.58456C2.57699 5.74387 2.65619 5.85294 2.73413 5.91176C2.81207 5.97059 2.90132 6 3.00188 6C3.09994 6 3.18856 5.97059 3.26775 5.91176C3.34695 5.85294 3.42552 5.74387 3.50346 5.58456L5.85669 0.863998C5.89441 0.785567 5.92772 0.713874 5.95663 0.648921C5.98554 0.583967 6 0.514721 6 0.441185C6 0.303924 5.95097 0.196078 5.85292 0.117647C5.75487 0.0392156 5.62414 0 5.46072 0L0.543036 0.00368929C0.37711 0.00368929 0.245129 0.0429049 0.147093 0.121336C0.0490308 0.199767 0 0.307613 0 0.444874Z" fill="#E02525"/>
</svg>
