<svg width="7" height="6" viewBox="0 0 7 6" fill="none" xmlns="http://www.w3.org/2000/svg">
<path d="M6.5 5.55513C6.5 5.48161 6.48554 5.41238 6.45663 5.34743C6.42772 5.28247 6.39315 5.212 6.35291 5.136L4.00346 0.41544C3.92301 0.256127 3.84381 0.147059 3.76587 0.0882352C3.68793 0.0294117 3.59868 0 3.49812 0C3.40006 0 3.31144 0.0294117 3.23225 0.0882352C3.15305 0.147059 3.07448 0.256127 2.99654 0.41544L0.643306 5.136C0.605594 5.21443 0.572282 5.28613 0.543369 5.35108C0.514456 5.41603 0.5 5.48528 0.5 5.55882C0.5 5.69608 0.549026 5.80392 0.647077 5.88235C0.745129 5.96078 0.875864 6 1.03928 6L5.95696 5.99631C6.12289 5.99631 6.25487 5.9571 6.35291 5.87866C6.45097 5.80023 6.5 5.69239 6.5 5.55513Z" fill="black" fill-opacity="0.9"/>
</svg>
