<svg xmlns="http://www.w3.org/2000/svg" width="16" height="16" viewBox="0 0 16 16" fill="none">
  <path d="M1.26275 4.6745C1.91111 5.35947 2.6366 5.94509 3.43921 6.43136C4.24183 6.91764 5.09934 7.28758 6.01176 7.54117C6.92417 7.79476 7.86404 7.92156 8.83137 7.92156C9.97648 7.91633 11.0811 7.7281 12.1451 7.35686C13.2092 6.98561 14.183 6.45228 15.0667 5.75686L14.6196 4.87843C13.8092 5.55293 12.9098 6.06927 11.9216 6.42744C10.9333 6.78561 9.90323 6.96731 8.83137 6.97254C7.44052 6.97777 6.12418 6.6928 4.88235 6.11764C3.64052 5.54248 2.58039 4.73725 1.70196 3.70196L1.26275 4.6745ZM0.423529 9.15294C1.44314 10.0209 2.55555 10.7124 3.76078 11.2274C4.96601 11.7425 6.21306 12.0732 7.50195 12.2196C8.79081 12.366 10.0758 12.3242 11.3568 12.0941C12.6379 11.864 13.8667 11.4405 15.0431 10.8235L15.0196 9.74903C13.8797 10.4078 12.6771 10.864 11.4118 11.1177C10.1464 11.3712 8.87711 11.4248 7.60391 11.2784C6.33071 11.132 5.10065 10.7908 3.91372 10.2549C2.72679 9.71897 1.64183 8.99609 0.658822 8.0863L0.423529 9.15294ZM4.31372 14.5412L5.43529 14.8C5.17385 14.1673 4.97254 13.519 4.83136 12.8549C4.69019 12.1908 4.61437 11.5163 4.60391 10.8313C4.53071 9.5294 4.66012 8.26405 4.99215 7.03529C5.32418 5.80653 5.83529 4.65751 6.52548 3.58823C7.21568 2.51895 8.06012 1.57647 9.05881 0.760784L8.05489 0.368627C7.06666 1.24706 6.23267 2.24444 5.55293 3.36078C4.8732 4.47712 4.36993 5.66927 4.04313 6.93725C3.71634 8.20524 3.58692 9.50852 3.6549 10.8471C3.66535 11.4745 3.72548 12.0967 3.83529 12.7137C3.94509 13.3307 4.10457 13.9398 4.31372 14.5412ZM9.48231 15.3177L10.3686 14.9255C9.63662 13.8902 9.07581 12.7699 8.68624 11.5647C8.29672 10.3594 8.10196 9.11631 8.10196 7.83528C8.10196 6.61699 8.2745 5.4379 8.61958 4.29803C8.96471 3.15817 9.4693 2.09412 10.1333 1.10588L9.2078 0.77647C8.53852 1.82745 8.02872 2.95163 7.67842 4.14902C7.3281 5.3464 7.15293 6.57515 7.15293 7.83528C7.15293 9.18955 7.35163 10.5007 7.74901 11.7686C8.14638 13.0366 8.72415 14.2196 9.48231 15.3177ZM14.1019 12.4L14.7372 11.6784C13.8588 11.1764 13.0993 10.5464 12.4588 9.78822C11.8183 9.03006 11.3215 8.18562 10.9686 7.25489C10.6156 6.32417 10.4313 5.3464 10.4157 4.32156C10.4105 3.77254 10.4549 3.22875 10.549 2.69019C10.6431 2.15163 10.7895 1.63137 10.9882 1.12941L10.0706 0.870584C9.86141 1.41961 9.70716 1.98301 9.60784 2.56078C9.50846 3.13856 9.4614 3.7281 9.46665 4.3294C9.48234 5.44313 9.67841 6.50849 10.0549 7.52548C10.4314 8.54246 10.9647 9.46793 11.6549 10.3019C12.3451 11.1359 13.1608 11.8353 14.1019 12.4ZM4.59608 7.82744C4.93072 7.82744 5.21699 7.70718 5.45489 7.46666C5.6928 7.22614 5.81176 6.93594 5.81176 6.59607C5.81176 6.2562 5.6928 5.96731 5.45489 5.72941C5.21699 5.49149 4.93072 5.37254 4.59608 5.37254C4.25097 5.37254 3.95947 5.49149 3.72156 5.72941C3.48365 5.96731 3.3647 6.2562 3.3647 6.59607C3.3647 6.93594 3.48365 7.22614 3.72156 7.46666C3.95947 7.70718 4.25097 7.82744 4.59608 7.82744ZM10.6039 8.47839C10.9333 8.47839 11.2157 8.35944 11.451 8.12155C11.6863 7.88365 11.8039 7.59738 11.8039 7.26274C11.8039 6.93332 11.6863 6.65097 11.451 6.41568C11.2157 6.18038 10.9333 6.06274 10.6039 6.06274C10.2641 6.06274 9.97648 6.18038 9.74116 6.41568C9.50589 6.65097 9.38826 6.93332 9.38826 7.26274C9.38826 7.59738 9.50589 7.88365 9.74116 8.12155C9.97648 8.35944 10.2641 8.47839 10.6039 8.47839ZM8.26668 13.0118C8.60132 13.0118 8.88759 12.8928 9.12547 12.6549C9.36336 12.417 9.48231 12.1281 9.48231 11.7882C9.48231 11.4484 9.36336 11.1595 9.12547 10.9215C8.88759 10.6836 8.60132 10.5647 8.26668 10.5647C7.92157 10.5647 7.63006 10.6836 7.39215 10.9215C7.15424 11.1595 7.03529 11.4484 7.03529 11.7882C7.03529 12.1281 7.15424 12.417 7.39215 12.6549C7.63006 12.8928 7.92157 13.0118 8.26668 13.0118ZM7.99999 16C9.09282 16 10.1216 15.7908 11.0863 15.3725C12.051 14.9542 12.902 14.3765 13.6392 13.6392C14.3765 12.902 14.9542 12.051 15.3725 11.0863C15.7908 10.1216 16 9.09282 16 7.99999C16 6.90718 15.7908 5.87842 15.3725 4.91372C14.9542 3.94902 14.3765 3.09804 13.6392 2.36078C12.902 1.62353 12.0497 1.04575 11.0823 0.62745C10.115 0.20915 9.08496 0 7.99215 0C6.89934 0 5.87058 0.20915 4.90588 0.62745C3.94117 1.04575 3.0915 1.62353 2.35686 2.36078C1.62222 3.09804 1.04575 3.94902 0.62745 4.91372C0.20915 5.87842 0 6.90718 0 7.99999C0 9.09282 0.20915 10.1216 0.62745 11.0863C1.04575 12.051 1.62353 12.902 2.36078 13.6392C3.09804 14.3765 3.94902 14.9542 4.91372 15.3725C5.87842 15.7908 6.90718 16 7.99999 16ZM7.99999 14.9334C7.05359 14.9334 6.16208 14.7516 5.32548 14.3882C4.48888 14.0248 3.75163 13.5241 3.11372 12.8862C2.47581 12.2483 1.97516 11.5111 1.61177 10.6745C1.24836 9.83788 1.06666 8.94639 1.06666 7.99999C1.06666 7.05359 1.24836 6.16208 1.61177 5.32548C1.97516 4.48888 2.47451 3.75163 3.1098 3.11372C3.74509 2.47581 4.48104 1.97516 5.31764 1.61177C6.15424 1.24836 7.04574 1.06666 7.99215 1.06666C8.93858 1.06666 9.83007 1.24836 10.6666 1.61177C11.5033 1.97516 12.2418 2.47581 12.8823 3.11372C13.5228 3.75163 14.0248 4.48888 14.3882 5.32548C14.7516 6.16208 14.9334 7.05359 14.9334 7.99999C14.9334 8.94639 14.7516 9.83788 14.3882 10.6745C14.0248 11.5111 13.5241 12.2483 12.8862 12.8862C12.2483 13.5241 11.5111 14.0248 10.6745 14.3882C9.83788 14.7516 8.94639 14.9334 7.99999 14.9334Z" fill="url(#paint0_linear_4229_19469)"/>
  <defs>
    <linearGradient id="paint0_linear_4229_19469" x1="20.1314" y1="7.97717" x2="-0.394912" y2="14.8828" gradientUnits="userSpaceOnUse">
      <stop stop-color="#7A87FF"/>
      <stop offset="1" stop-color="#575BBE"/>
    </linearGradient>
  </defs>
</svg>