<svg width="16" height="16" viewBox="0 0 16 16" fill="none" xmlns="http://www.w3.org/2000/svg">
<path id="Vector" d="M14.7436 10.5951C14.7436 10.9326 14.6178 11.2229 14.3661 11.466C14.1144 11.709 13.7484 11.8306 13.268 11.8306H2.73283C2.2524 11.8306 1.88636 11.709 1.63471 11.466C1.38305 11.2229 1.25723 10.9326 1.25723 10.5951C1.25723 10.4178 1.28439 10.2534 1.33873 10.1019C1.39306 9.95028 1.4717 9.78586 1.57465 9.60857L6.7221 0.866487C6.90512 0.56336 7.10244 0.343163 7.31406 0.205898C7.52568 0.0686327 7.75445 0 8.00038 0C8.24632 0 8.47509 0.0686327 8.68671 0.205898C8.89833 0.343163 9.09565 0.56336 9.27867 0.866487L14.4261 9.60857C14.5291 9.78017 14.6077 9.94316 14.6621 10.0975C14.7164 10.252 14.7436 10.4178 14.7436 10.5951ZM13.1564 10.2177C13.1564 10.1891 13.1507 10.1576 13.1393 10.1233C13.1278 10.089 13.1078 10.0518 13.0792 10.0118L8.2406 1.85309C8.17197 1.73298 8.09189 1.67292 8.00038 1.67292C7.90887 1.67292 7.8288 1.73298 7.76017 1.85309L2.92157 10.0118C2.89297 10.0518 2.87295 10.089 2.86151 10.1233C2.85007 10.1576 2.84436 10.1891 2.84436 10.2177C2.84436 10.2806 2.8658 10.3364 2.9087 10.385C2.9516 10.4336 3.01594 10.4579 3.10173 10.4579H12.899C12.9848 10.4579 13.0492 10.4336 13.0921 10.385C13.135 10.3364 13.1564 10.2806 13.1564 10.2177ZM15.0867 15.2621C15.0867 15.4623 15.0181 15.6354 14.8808 15.7813C14.7435 15.9271 14.5748 16 14.3746 16H1.63471C1.42881 16 1.25723 15.9271 1.11996 15.7813C0.982695 15.6354 0.914063 15.4623 0.914063 15.2621C0.914063 15.062 0.982695 14.8904 1.11996 14.7474C1.25723 14.6045 1.42881 14.533 1.63471 14.533H14.3746C14.5748 14.533 14.7435 14.6045 14.8808 14.7474C15.0181 14.8904 15.0867 15.062 15.0867 15.2621Z" fill="#666666"/>
</svg>
