<svg width="24" height="24" viewBox="0 0 24 24" fill="none" xmlns="http://www.w3.org/2000/svg">
<path d="M17.0346 9.40297H6.97496C6.75606 9.40297 6.5753 9.33996 6.43268 9.21393C6.29006 9.08789 6.21875 8.91873 6.21875 8.70646C6.21875 8.49419 6.29006 8.32338 6.43268 8.19403C6.5753 8.06468 6.75606 8 6.97496 8H17.0346C17.2535 8 17.4326 8.06468 17.572 8.19403C17.7112 8.32338 17.7808 8.49419 17.7808 8.70646C17.7808 8.91873 17.7112 9.08789 17.572 9.21393C17.4326 9.33996 17.2535 9.40297 17.0346 9.40297Z" fill="#666666"/>
<path d="M17.0346 12.6965H6.97496C6.75606 12.6965 6.5753 12.6335 6.43268 12.5074C6.29006 12.3814 6.21875 12.2123 6.21875 12C6.21875 11.7877 6.29006 11.6169 6.43268 11.4875C6.5753 11.3582 6.75606 11.2935 6.97496 11.2935H17.0346C17.2535 11.2935 17.4326 11.3582 17.572 11.4875C17.7112 11.6169 17.7808 11.7877 17.7808 12C17.7808 12.2123 17.7112 12.3814 17.572 12.5074C17.4326 12.6335 17.2535 12.6965 17.0346 12.6965Z" fill="#666666"/>
<path d="M17.0346 16H6.97496C6.75606 16 6.5753 15.9353 6.43268 15.8059C6.29006 15.6766 6.21875 15.5091 6.21875 15.3035C6.21875 15.0912 6.29006 14.9204 6.43268 14.791C6.5753 14.6616 6.75606 14.597 6.97496 14.597H17.0346C17.2535 14.597 17.4326 14.6616 17.572 14.791C17.7112 14.9204 17.7808 15.0912 17.7808 15.3035C17.7808 15.5091 17.7112 15.6766 17.572 15.8059C17.4326 15.9353 17.2535 16 17.0346 16Z" fill="#666666"/>
</svg>
