<svg width="24" height="24" viewBox="0 0 24 24" fill="none" xmlns="http://www.w3.org/2000/svg">
<rect x="0.5" y="0.5" width="23" height="23" rx="3.5" stroke="#C9C9CB"/>
<path d="M7.54194 17.5008C7.84612 17.5008 8.09816 17.3922 8.29805 17.1749L11.9874 13.4725L15.7027 17.1749C15.9113 17.3922 16.159 17.5008 16.4458 17.5008C16.7326 17.5008 16.9781 17.3965 17.1823 17.1879C17.3865 16.9793 17.4887 16.7316 17.4887 16.4449C17.4887 16.158 17.3844 15.9103 17.1759 15.7017L13.4735 11.9994L17.1888 8.27101C17.3975 8.06242 17.5018 7.81907 17.5018 7.54096C17.5018 7.25416 17.3996 7.00864 17.1954 6.8044C16.9911 6.60016 16.7456 6.49805 16.4589 6.49805C16.1894 6.49805 15.9504 6.60668 15.7418 6.82396L11.9874 10.5393L8.27198 6.837C8.08078 6.62841 7.83743 6.52412 7.54194 6.52412C7.25514 6.52412 7.00962 6.62406 6.80538 6.82396C6.60114 7.02385 6.49902 7.2672 6.49902 7.554C6.49902 7.8408 6.60332 8.08414 6.8119 8.28404L10.5142 11.9994L6.8119 15.7148C6.60332 15.9147 6.49902 16.158 6.49902 16.4449C6.49902 16.7316 6.60114 16.9793 6.80538 17.1879C7.00962 17.3965 7.25514 17.5008 7.54194 17.5008Z" fill="black" fill-opacity="0.9"/>
</svg>
