<svg width="24" height="24" viewBox="0 0 24 24" fill="none" xmlns="http://www.w3.org/2000/svg">
<path d="M13.1484 14.8975L17.7313 10.0347C17.9023 9.85587 17.9917 9.64596 17.9995 9.40496C18.0073 9.16396 17.9295 8.96572 17.7663 8.81024C17.5875 8.62366 17.3756 8.52842 17.1307 8.52454C16.8858 8.52065 16.6778 8.60811 16.5068 8.78691L11.9939 13.5681L7.48098 8.78691C7.31772 8.60811 7.1117 8.52065 6.86293 8.52454C6.61415 8.52842 6.40425 8.62366 6.23322 8.81024C6.07774 8.97349 6 9.17368 6 9.4108C6 9.64791 6.0894 9.85587 6.2682 10.0347L10.8394 14.8975C11.0882 15.154 11.3428 15.325 11.6033 15.4106C11.8637 15.4961 12.1261 15.4961 12.3904 15.4106C12.6547 15.325 12.9074 15.154 13.1484 14.8975Z" fill="#666666"/>
</svg>
