<svg width="8" height="8" viewBox="0 0 8 8" fill="none" xmlns="http://www.w3.org/2000/svg">
<path fill-rule="evenodd" clip-rule="evenodd" d="M5.54313 7.68625C5.06079 7.89542 4.54641 8 4 8C3.45359 8 2.93921 7.89542 2.45686 7.68625C1.97451 7.47712 1.54902 7.18823 1.18039 6.81959C0.811763 6.45098 0.522875 6.02549 0.313725 5.54313C0.104575 5.06079 0 4.54641 0 4C0 3.45359 0.104575 2.93921 0.313725 2.45686C0.522875 1.97451 0.81111 1.54902 1.17843 1.18039C1.54575 0.811763 1.97059 0.522875 2.45294 0.313725C2.93529 0.104575 3.44967 0 3.99607 0C4.54248 0 5.05751 0.104575 5.54116 0.313725C6.02483 0.522875 6.45098 0.811763 6.81959 1.18039C7.18823 1.54902 7.47712 1.97451 7.68625 2.45686C7.89542 2.93921 8 3.45359 8 4C8 4.54641 7.89542 5.06079 7.68625 5.54313C7.47712 6.02549 7.18823 6.45098 6.81959 6.81959C6.45098 7.18823 6.02549 7.47712 5.54313 7.68625ZM5.96065 4.23139C6.03906 4.15295 6.07827 4.07321 6.07827 3.99218C6.07827 3.91375 6.03906 3.83531 5.96065 3.75688L4.59985 2.38826C4.54495 2.33336 4.47305 2.30591 4.38417 2.30591C4.30051 2.30591 4.23057 2.33401 4.17435 2.39022C4.11813 2.44643 4.09002 2.51636 4.09002 2.60002C4.09002 2.67845 4.1214 2.75035 4.18415 2.81571L4.68611 3.31375L5.17241 3.72159L4.31751 3.6863H2.21945C2.13057 3.6863 2.05736 3.71505 1.99985 3.77257C1.94233 3.83009 1.91357 3.90329 1.91357 3.99218C1.91357 4.08106 1.94233 4.15426 1.99985 4.21179C2.05736 4.2693 2.13057 4.29805 2.21945 4.29805H4.31751L5.17631 4.26275L4.68611 4.67452L4.18415 5.16865C4.1214 5.22878 4.09002 5.30198 4.09002 5.38827C4.09002 5.47193 4.11813 5.54251 4.17435 5.60001C4.23057 5.65754 4.30051 5.68631 4.38417 5.68631C4.47043 5.68631 4.54232 5.65754 4.59985 5.60001L5.96065 4.23139Z" fill="#666666"/>
</svg>
