<svg width="8" height="8" viewBox="0 0 8 8" fill="none" xmlns="http://www.w3.org/2000/svg">
<path d="M0.284765 5.31523L2.96144 1.30618C3.12294 1.07201 3.33086 0.916572 3.5852 0.839866C3.83955 0.763152 4.09188 0.765169 4.34219 0.845919C4.59251 0.926668 4.79842 1.08009 4.95991 1.30618L7.6851 5.31523C7.89503 5.63014 8 5.93294 8 6.22362C8 6.5143 7.90109 6.75251 7.70327 6.93822C7.50544 7.12394 7.22081 7.2168 6.84937 7.2168H1.1083C0.744985 7.2168 0.470473 7.12192 0.284765 6.93217C0.0989733 6.74241 0.00409365 6.50017 0.000124931 6.20545C-0.00392628 5.91072 0.0909534 5.61398 0.284765 5.31523Z" fill="black" fill-opacity="0.9"/>
</svg>
