<svg width="8" height="8" viewBox="0 0 8 8" fill="none" xmlns="http://www.w3.org/2000/svg">
<path id="Vector" d="M1.36448 8H6.63554C7.09036 8 7.43148 7.88775 7.6589 7.66324C7.88631 7.43874 8.00001 7.10196 8.00001 6.65292V1.3471C8.00001 0.898065 7.88631 0.56129 7.6589 0.336774C7.43148 0.112258 7.09036 0 6.63554 0H1.36448C0.909653 0 0.568532 0.112258 0.34112 0.336774C0.113707 0.56129 0 0.898065 0 1.3471V6.65292C0 7.10196 0.113707 7.43874 0.34112 7.66324C0.568532 7.88775 0.909653 8 1.36448 8ZM1.37317 7.30041C1.1559 7.30041 0.989321 7.24318 0.87344 7.12874C0.757563 7.01432 0.699624 6.84413 0.699624 6.61817V1.38186C0.699624 1.1559 0.757563 0.985699 0.87344 0.871268C0.989321 0.756838 1.1559 0.699623 1.37317 0.699623H6.62686C6.84122 0.699623 7.00706 0.756838 7.12439 0.871268C7.24171 0.985699 7.30038 1.1559 7.30038 1.38186V6.61817C7.30038 6.84413 7.24171 7.01432 7.12439 7.12874C7.00706 7.24318 6.84122 7.30041 6.62686 7.30041H1.37317ZM6.24009 3.9848C6.24009 3.90079 6.19808 3.81678 6.11407 3.73276L4.64965 2.25965C4.59171 2.20171 4.51495 2.17274 4.41935 2.17274C4.33244 2.17274 4.25856 2.20243 4.19773 2.26182C4.13689 2.32121 4.10648 2.3958 4.10648 2.48561C4.10648 2.57542 4.13979 2.65219 4.20642 2.71592L4.74959 3.25476L5.27106 3.69365L4.35417 3.65889H2.09018C1.99457 3.65889 1.91635 3.69003 1.85552 3.75232C1.79468 3.8146 1.76426 3.8921 1.76426 3.9848C1.76426 4.0804 1.79468 4.15862 1.85552 4.21946C1.91635 4.28029 1.99457 4.31071 2.09018 4.31071H4.35417L5.27542 4.27595L4.74959 4.71919L4.20642 5.25369C4.13979 5.31451 4.10648 5.39272 4.10648 5.48833C4.10648 5.57525 4.13689 5.64984 4.19773 5.71211C4.25856 5.7744 4.33244 5.80555 4.41935 5.80555C4.51204 5.80555 4.58881 5.77513 4.64965 5.71429L6.11407 4.24118C6.19808 4.15717 6.24009 4.07171 6.24009 3.9848Z" fill="url(#paint0_linear_4664_7710)"/>
<defs>
<linearGradient id="paint0_linear_4664_7710" x1="10.0657" y1="3.98858" x2="-0.197453" y2="7.44139" gradientUnits="userSpaceOnUse">
<stop stop-color="#7A87FF"/>
<stop offset="1" stop-color="#575BBE"/>
</linearGradient>
</defs>
</svg>
