<svg width="18" height="12" viewBox="0 0 18 12" fill="none" xmlns="http://www.w3.org/2000/svg">
<path d="M2.91929 12H15.0809C15.8214 12 16.3744 11.8184 16.74 11.4551C17.1055 11.0919 17.2883 10.5471 17.2883 9.8207V5.65904C17.2883 5.44814 17.2766 5.26654 17.2532 5.11422C17.2297 4.96191 17.1887 4.82365 17.1301 4.69946C17.0715 4.57526 16.9907 4.4499 16.8876 4.32336L14.4623 1.32161C14.1858 0.984178 13.9433 0.719387 13.7347 0.527239C13.5261 0.33509 13.293 0.199179 13.0352 0.119508C12.7775 0.0398359 12.44 0 12.023 0H5.97727C5.56017 0 5.22391 0.0398359 4.9685 0.119508C4.71308 0.199179 4.47992 0.33509 4.26902 0.527239C4.05813 0.719387 3.81677 0.984178 3.54495 1.32161L1.11262 4.32336C1.00951 4.4499 0.928668 4.57526 0.870086 4.69946C0.811504 4.82365 0.770496 4.96191 0.747063 5.11422C0.72363 5.26654 0.711914 5.44814 0.711914 5.65904V9.8207C0.711914 10.5471 0.895862 11.0919 1.26376 11.4551C1.63165 11.8184 2.1835 12 2.91929 12ZM2.93335 10.8682C2.58186 10.8682 2.31238 10.7756 2.12491 10.5904C1.93745 10.4053 1.84372 10.13 1.84372 9.76448V6.2636H6.30065C6.35689 6.70414 6.5092 7.09663 6.75759 7.44107C7.00598 7.78555 7.3235 8.05621 7.71014 8.25307C8.09676 8.44988 8.52676 8.54828 9.00014 8.54828C9.47817 8.54828 9.91049 8.4487 10.2971 8.24954C10.6838 8.05038 11.0001 7.77856 11.2462 7.43409C11.4922 7.08962 11.6434 6.69945 11.6996 6.2636H16.1565V9.76448C16.1565 10.13 16.0616 10.4053 15.8718 10.5904C15.682 10.7756 15.4137 10.8682 15.0669 10.8682H2.93335ZM9.00014 7.50787C8.66737 7.50787 8.37914 7.42468 8.13544 7.2583C7.89174 7.09194 7.70311 6.87989 7.56954 6.62213C7.43597 6.36436 7.36919 6.09957 7.36919 5.82775V5.80666C7.36919 5.66138 7.32467 5.53015 7.23562 5.41299C7.14657 5.29582 7.01066 5.23724 6.82789 5.23724H2.19522C2.07805 5.23724 2.00658 5.19741 1.98081 5.11774C1.95503 5.03806 1.9726 4.96074 2.03353 4.88575L4.6416 1.59578C4.815 1.37551 5.00364 1.21851 5.20751 1.12478C5.41137 1.03105 5.63984 0.984181 5.89292 0.984181H12.1073C12.3651 0.984181 12.5947 1.03105 12.7962 1.12478C12.9977 1.21851 13.1852 1.37551 13.3587 1.59578L15.9738 4.88575C16.03 4.96074 16.0452 5.03806 16.0194 5.11774C15.9936 5.19741 15.9245 5.23724 15.8121 5.23724H11.1723C10.9896 5.23724 10.8548 5.29582 10.7681 5.41299C10.6814 5.53015 10.6381 5.66138 10.6381 5.80666V5.82775C10.6381 6.09957 10.5701 6.36436 10.4342 6.62213C10.2983 6.87989 10.1085 7.09194 9.86476 7.2583C9.62106 7.42468 9.33285 7.50787 9.00014 7.50787ZM11.9526 2.01757H6.04758C5.95385 2.01757 5.87417 2.05038 5.80856 2.11598C5.74295 2.1816 5.71014 2.26127 5.71014 2.35501C5.71014 2.44874 5.74295 2.52841 5.80856 2.59402C5.87417 2.65963 5.95385 2.69244 6.04758 2.69244H11.9526C12.0511 2.69244 12.1319 2.65963 12.1952 2.59402C12.2584 2.52841 12.2901 2.44874 12.2901 2.35501C12.2901 2.26127 12.2584 2.1816 12.1952 2.11598C12.1319 2.05038 12.0511 2.01757 11.9526 2.01757ZM12.8877 3.60632H5.1126C5.01418 3.60632 4.931 3.64381 4.86304 3.7188C4.79509 3.79378 4.76111 3.87814 4.76111 3.97187C4.76111 4.0656 4.79509 4.14762 4.86304 4.21792C4.931 4.28821 5.01418 4.32336 5.1126 4.32336H12.8877C12.986 4.32336 13.0692 4.28821 13.1372 4.21792C13.2051 4.14762 13.2391 4.0656 13.2391 3.97187C13.2391 3.87814 13.2051 3.79378 13.1372 3.7188C13.0692 3.64381 12.986 3.60632 12.8877 3.60632Z" fill="black" fill-opacity="0.9"/>
</svg>
